# xmcd CD database file
#
# Track frame offsets:
#	150
#	30962
#	61659
#	93456
#	126434
#	147627
#	181535
#	215236
#
# Disc length: 3356 seconds
#
# Revision: 0
# Processed by: cddbd v1.4PL0 Copyright (c) Steve Scherf et al.
# Submitted via: CDex 1.51
#
DISCID=6f0d1a08
DTITLE=Llewellyn - A Place To Dream
DYEAR=1998
DGENRE=New Age
TTITLE0=Llewellyn - A Place To Dream - 01 - 01 A Place To Dream
TTITLE1=Llewellyn - A Place To Dream - 02 - 02 Wishing You Love
TTITLE2=Llewellyn - A Place To Dream - 03 - 03 Seeking Solace
TTITLE3=Llewellyn - A Place To Dream - 04 - 04 Waking Reveries
TTITLE4=Llewellyn - A Place To Dream - 05 - 05 Place Of Enchantment
TTITLE5=Llewellyn - A Place To Dream - 06 - 06 Weaver Of Dreams
TTITLE6=Llewellyn - A Place To Dream - 07 - 07 Tranquility Falls
TTITLE7=Llewellyn - A Place To Dream - 08 - 08 In The Mists Of Sleep
EXTD=YEAR: 1998
EXTT0=
EXTT1=
EXTT2=
EXTT3=
EXTT4=
EXTT5=
EXTT6=
EXTT7=
PLAYORDER=
